<?xml version="1.0" encoding="utf-8"?>
<svg viewBox="-20.69 -12.028 500 500" xmlns="http://www.w3.org/2000/svg" xmlns:bx="https://boxy-svg.com">
  <defs>
    <bx:guide x="374.161" y="1476.843" angle="90"/>
    <bx:guide x="1213.753" y="370.023" angle="0"/>
    <bx:guide x="216.173" y="428.552" angle="90"/>
  </defs>
  <path d="M 35.766 -12.028 L 422.854 -12.028 C 454.034 -12.028 479.31 13.248 479.31 44.428 L 479.31 140.28 L 420.602 172.706 L 420.602 120.213 C 420.513 100.059 412.268 81.429 399.074 68.239 C 385.883 55.045 367.255 46.8 347.102 46.71 L 111.521 46.71 C 91.368 46.8 72.739 55.045 59.549 68.239 C 46.357 81.429 38.107 100.059 38.018 120.213 L 38.018 355.862 C 38.09 374.102 44.849 391.127 55.899 403.911 C 56.512 404.617 57.134 405.309 57.769 405.99 C 68.34 417.993 80.197 429.165 96.9 429.165 C 101.181 429.165 102.518 426.827 102.518 424.269 L 102.475 118.638 C 102.47 118.424 102.47 118.214 102.475 118.007 C 102.569 115.117 103.766 112.799 105.731 110.834 C 107.858 108.714 110.387 107.484 113.604 107.573 L 345.015 107.573 C 348.231 107.484 350.765 108.714 352.888 110.834 C 355.009 112.958 356.233 115.487 356.149 118.705 L 356.136 208.313 L 356.128 267.626 L 356.105 424.335 C 356.105 426.891 357.441 429.233 361.721 429.233 C 379.415 429.233 391.666 416.692 402.72 403.913 C 413.769 391.127 420.53 374.102 420.602 355.862 L 420.602 303.237 L 479.31 335.663 L 479.31 431.516 C 479.31 462.696 454.034 487.972 422.854 487.972 L 35.766 487.972 C 4.586 487.972 -20.69 462.696 -20.69 431.516 L -20.69 44.428 C -20.69 13.248 4.586 -12.028 35.766 -12.028 Z M 229.31 148.977 C 208.439 148.977 191.519 165.376 191.519 185.606 C 191.519 205.836 208.439 222.235 229.31 222.235 C 250.181 222.235 267.101 205.836 267.101 185.606 C 267.101 165.376 250.181 148.977 229.31 148.977 Z M 181.023 238.459 C 174.716 234.42 164.691 235.768 164.691 246.224 L 164.691 414.427 C 164.691 422.226 171.014 428.552 178.815 428.552 L 279.806 428.552 C 287.608 428.552 293.93 422.226 293.93 414.427 L 293.93 346.73 L 257.735 346.73 L 257.735 363.607 C 257.735 375.291 253.283 378.212 244.377 372.372 L 196.89 341.213 C 187.986 335.373 187.986 329.531 196.89 323.691 L 244.377 292.534 C 253.283 286.693 257.735 289.615 257.735 301.297 L 257.735 313.919 L 293.93 313.919 L 293.93 246.224 C 293.93 235.768 283.906 234.42 277.599 238.459 C 276.43 239.037 275.308 239.748 274.262 240.565 C 272.43 242.01 270.576 243.37 268.697 244.633 C 255.213 253.134 242.013 257.173 229.31 257.307 C 216.606 257.173 203.408 253.134 189.923 244.633 C 188.049 243.37 186.193 242.01 184.36 240.565 C 183.315 239.748 182.191 239.037 181.023 238.459 Z" style="stroke-width: 0px; stroke-opacity: 0; stroke: rgba(0, 0, 0, 0); fill: rgb(29, 176, 84); stroke-miterlimit: 1;"/>
</svg>