<?xml version="1.0" encoding="utf-8"?>
<svg viewBox="-20.69 -12.028 500 500" xmlns="http://www.w3.org/2000/svg" xmlns:bx="https://boxy-svg.com">
  <defs>
    <bx:guide x="374.161" y="1476.843" angle="90"/>
    <bx:guide x="1213.753" y="370.023" angle="0"/>
  </defs>
  <rect x="-20.115" y="46.943" width="437.155" height="440.529" style="stroke: rgb(0, 0, 0); fill: rgb(75, 75, 75); stroke-width: 0px;" rx="56.456" ry="56.456"/>
  <path d="M 529.943 315.741 Q 537.759 301.591 545.574 315.741 L 627.635 464.313 Q 635.45 478.463 619.819 478.463 L 455.698 478.463 Q 440.067 478.463 447.882 464.313 Z" style="fill-rule: nonzero; paint-order: stroke markers; transform-origin: 343.376px 249.079px; filter: none; stroke-width: 0px; stroke: rgb(0, 0, 0); fill: rgb(75, 75, 75);" transform="matrix(0, -1, 1, 0, -93.909065, 220.850385)" bx:shape="triangle 440.067 301.591 195.383 176.872 0.5 0.08 1@2251bee2"/>
  <ellipse style="fill: rgb(255, 255, 255); stroke: rgb(255, 255, 255);" cx="198.46" cy="228.797" rx="33.469" ry="32.688"/>
  <path d="M 165.317 278.747 C 166.669 279.821 168.037 280.831 169.42 281.77 C 179.362 288.086 189.093 291.087 198.461 291.186 C 207.826 291.087 217.559 288.086 227.502 281.77 C 228.887 280.831 230.254 279.821 231.605 278.747 C 232.376 278.14 233.203 277.612 234.065 277.182 C 238.716 274.181 246.106 275.183 246.106 282.952 L 246.106 333.25 L 219.419 333.25 L 219.419 323.872 C 219.419 315.192 216.137 313.021 209.57 317.361 L 174.556 340.511 C 167.991 344.85 167.991 349.191 174.556 353.53 L 209.57 376.682 C 216.137 381.021 219.419 378.851 219.419 370.169 L 219.419 357.63 L 246.106 357.63 L 246.106 407.929 C 246.106 413.724 241.445 418.424 235.692 418.424 L 161.229 418.424 C 155.477 418.424 150.815 413.724 150.815 407.929 L 150.815 282.952 C 150.815 275.183 158.207 274.181 162.857 277.182 C 163.718 277.612 164.547 278.14 165.317 278.747 Z" style="stroke-miterlimit: 1; stroke-linecap: round; stroke-linejoin: round; stroke-width: 2px; fill: rgb(255, 255, 255); stroke: rgb(255, 255, 255);"/>
  <path d="M 350.216 361.428 C 350.159 376.01 344.795 389.621 336.029 399.842 C 327.26 410.059 317.541 420.084 303.504 420.084 C 300.109 420.084 299.048 418.212 299.048 416.169 L 299.083 171.835 C 299.151 169.262 298.179 167.24 296.496 165.542 C 294.812 163.847 292.802 162.864 290.251 162.935 L 106.668 162.935 C 104.116 162.864 102.109 163.847 100.422 165.542 C 98.863 167.113 97.913 168.966 97.839 171.276 C 97.835 171.442 97.835 171.61 97.839 171.781 L 97.873 416.116 C 97.873 418.161 96.812 420.03 93.416 420.03 C 80.165 420.03 70.759 411.098 62.373 401.503 C 61.869 400.958 61.375 400.405 60.889 399.841 C 52.123 389.621 46.761 376.01 46.703 361.428 L 46.703 173.04 C 46.774 156.928 53.319 142.035 63.785 131.489 C 74.248 120.942 89.027 114.35 105.015 114.279 L 291.906 114.279 C 307.895 114.35 322.672 120.942 333.137 131.489 C 343.604 142.035 350.145 156.928 350.216 173.04 L 350.216 361.428 Z" style="fill: rgb(255, 255, 255); stroke: rgb(255, 255, 255);"/>
</svg>